<?xml version="1.0" encoding="utf-8"?>
<svg viewBox="0 0 448 511.924" width="620" height="758" xmlns="http://www.w3.org/2000/svg">
  <path d="M 223.9 255.924 C 294.6 255.924 351.9 313.224 351.9 383.924 C 351.9 454.624 294.6 511.924 223.9 511.924 C 153.2 511.924 95.9 454.624 95.9 383.924 C 95.9 313.224 153.2 255.924 223.9 255.924 Z M 103.9 87.924 C 103.9 74.624 114.6 63.924 127.9 63.924 C 141.2 63.924 151.9 74.624 151.9 87.924 C 151.9 101.224 141.2 111.924 127.9 111.924 C 114.6 111.924 103.9 101.224 103.9 87.924 Z M 354.3 239.524 L 319.9 245.224 L 319.9 190.224 C 356.4 182.824 383.9 150.424 383.9 111.824 L 383.9 55.824 C 383.9 48.224 378.5 41.624 371 40.124 L 338.8 33.724 C 334.5 32.824 330.3 35.624 329.4 40.024 L 326.3 55.724 C 325.4 60.024 328.2 64.324 332.6 65.124 L 351.9 69.024 L 351.9 111.924 C 351.9 141.524 325 164.924 294.3 159.024 C 271.5 154.624 255.9 133.224 255.9 110.024 L 255.9 69.024 L 275.2 65.124 C 279.5 64.224 282.3 60.024 281.5 55.724 L 278.4 40.024 C 277.5 35.724 273.3 32.924 269 33.724 L 237.8 37.924 C 229.9 39.024 224 45.724 224 53.824 L 224 111.824 C 224 150.424 251.5 182.724 288 190.224 L 288 237.424 C 268.4 228.824 246.8 223.824 224 223.824 C 194.7 223.824 167.6 232.324 144 246.124 L 144 141.224 C 167.1 134.324 184 113.124 184 87.824 C 184 56.924 158.9 31.824 128 31.824 C 97.1 31.824 72 56.924 72 87.824 C 72 113.124 88.9 134.324 112 141.224 L 112 242.624 L 93.6 239.524 C 39.6 230.524 0 183.824 0 129.024 L 0 31.924 C 0 14.224 14.3 -0.076 32 -0.076 L 416 -0.076 C 433.7 -0.076 448 14.224 448 31.924 L 448 129.024 C 447.9 183.824 408.3 230.524 354.3 239.524 Z" transform="matrix(-1, 0, 0, -1, 447.999955, 511.847983)" style="fill: rgb(255, 255, 255);"/>
</svg>